<svg xmlns="http://www.w3.org/2000/svg" viewBox="0 0 200 140">
  <defs>
    <linearGradient id="lineGrad" x1="0%" y1="0%" x2="100%" y2="0%">
      <stop offset="0%" style="stop-color:#22d3ee;stop-opacity:0.3"/>
      <stop offset="100%" style="stop-color:#a855f7;stop-opacity:0.3"/>
    </linearGradient>
  </defs>
  
  <!-- Grid background -->
  <g stroke="#27272a" stroke-width="0.5">
    <line x1="30" y1="20" x2="30" y2="100"/>
    <line x1="30" y1="100" x2="180" y2="100"/>
    <line x1="30" y1="60" x2="180" y2="60" stroke-dasharray="3,3"/>
    <line x1="30" y1="80" x2="180" y2="80" stroke-dasharray="3,3"/>
    <line x1="30" y1="40" x2="180" y2="40" stroke-dasharray="3,3"/>
  </g>
  
  <!-- Dotted line chart (no data) -->
  <path d="M 40 80 L 70 70 L 100 75 L 130 60 L 160 65" 
        stroke="url(#lineGrad)" 
        stroke-width="2" 
        stroke-dasharray="5,5" 
        fill="none" 
        opacity="0.5"/>
  
  <!-- Empty data points -->
  <circle cx="40" cy="80" r="4" fill="#27272a" stroke="#3f3f46" stroke-width="1.5"/>
  <circle cx="70" cy="70" r="4" fill="#27272a" stroke="#3f3f46" stroke-width="1.5"/>
  <circle cx="100" cy="75" r="4" fill="#27272a" stroke="#3f3f46" stroke-width="1.5"/>
  <circle cx="130" cy="60" r="4" fill="#27272a" stroke="#3f3f46" stroke-width="1.5"/>
  <circle cx="160" cy="65" r="4" fill="#27272a" stroke="#3f3f46" stroke-width="1.5"/>
  
  <!-- Question marks -->
  <text x="70" y="55" text-anchor="middle" font-size="10" fill="#71717a">?</text>
  <text x="130" y="50" text-anchor="middle" font-size="10" fill="#71717a">?</text>
  
  <!-- Y-axis labels -->
  <text x="25" y="42" text-anchor="end" font-size="8" fill="#3f3f46">100</text>
  <text x="25" y="62" text-anchor="end" font-size="8" fill="#3f3f46">75</text>
  <text x="25" y="82" text-anchor="end" font-size="8" fill="#3f3f46">50</text>
  <text x="25" y="102" text-anchor="end" font-size="8" fill="#3f3f46">0</text>
  
  <!-- Caption -->
  <text x="100" y="125" text-anchor="middle" font-size="11" fill="#71717a">Submit traces to build history</text>
</svg>
